<?xml version="1.0" encoding="UTF-8" standalone="no"?>
<!-- Generator: Adobe Illustrator 19.0.0, SVG Export Plug-In . SVG Version: 6.00 Build 0)  -->

<svg
   version="1.1"
   id="Layer_1"
   x="0px"
   y="0px"
   viewBox="0 0 400 400"
   xml:space="preserve"
   sodipodi:docname="calculator.svg"
   width="400"
   height="400"
   inkscape:version="1.1 (c4e8f9ed74, 2021-05-24)"
   xmlns:inkscape="http://www.inkscape.org/namespaces/inkscape"
   xmlns:sodipodi="http://sodipodi.sourceforge.net/DTD/sodipodi-0.dtd"
   xmlns="http://www.w3.org/2000/svg"
   xmlns:svg="http://www.w3.org/2000/svg"><defs
   id="defs37" /><sodipodi:namedview
   id="namedview35"
   pagecolor="#ffffff"
   bordercolor="#999999"
   borderopacity="1"
   inkscape:pageshadow="0"
   inkscape:pageopacity="0"
   inkscape:pagecheckerboard="0"
   showgrid="false"
   height="359px"
   inkscape:zoom="2.2820264"
   inkscape:cx="156.0017"
   inkscape:cy="171.11984"
   inkscape:window-width="2556"
   inkscape:window-height="1391"
   inkscape:window-x="2560"
   inkscape:window-y="45"
   inkscape:window-maximized="1"
   inkscape:current-layer="Layer_1"><inkscape:grid
     type="xygrid"
     id="grid874" /></sodipodi:namedview>
<g
   id="XMLID_231_"
   transform="translate(34.898,35)">
	<path
   id="XMLID_232_"
   d="M 270.102,0 H 59.898 c -8.284,0 -15,6.716 -15,15 v 90 210 c 0,8.284 6.716,15 15,15 h 210.204 c 8.284,0 15,-6.716 15,-15 V 105 15 c 0,-8.284 -6.716,-15 -15,-15 z M 144.898,230 v -40.001 h 40.001 V 230 Z m 40.001,30 v 40 h -40.001 v -40 z m 0,-140 v 39.999 H 144.898 V 120 Z m 70.203,0 v 39.999 H 214.899 V 120 Z m -140.204,39.999 h -40 V 120 h 39.999 v 39.999 z m -40,30 h 39.999 V 230 H 74.898 Z m 140.001,0 h 40.203 V 230 H 214.899 Z M 255.102,30 V 90 H 74.898 V 30 Z M 74.898,260 h 39.999 v 40 H 74.898 Z m 140.001,40 v -40 h 40.203 v 40 z" />
</g>
<g
   id="g4">
</g>
<g
   id="g6">
</g>
<g
   id="g8">
</g>
<g
   id="g10">
</g>
<g
   id="g12">
</g>
<g
   id="g14">
</g>
<g
   id="g16">
</g>
<g
   id="g18">
</g>
<g
   id="g20">
</g>
<g
   id="g22">
</g>
<g
   id="g24">
</g>
<g
   id="g26">
</g>
<g
   id="g28">
</g>
<g
   id="g30">
</g>
<g
   id="g32">
</g>
</svg>
