<?xml version="1.0" encoding="UTF-8" standalone="no"?>
<svg
   fill="#000000"
   viewBox="0 0 55 55"
   width="55"
   height="55"
   version="1.1"
   id="svg4"
   sodipodi:docname="gimp.svg"
   inkscape:version="1.1 (c4e8f9ed74, 2021-05-24)"
   xmlns:inkscape="http://www.inkscape.org/namespaces/inkscape"
   xmlns:sodipodi="http://sodipodi.sourceforge.net/DTD/sodipodi-0.dtd"
   xmlns="http://www.w3.org/2000/svg"
   xmlns:svg="http://www.w3.org/2000/svg">
  <defs
     id="defs8" />
  <sodipodi:namedview
     id="namedview6"
     pagecolor="#ffffff"
     bordercolor="#999999"
     borderopacity="1"
     inkscape:pageshadow="0"
     inkscape:pageopacity="0"
     inkscape:pagecheckerboard="0"
     showgrid="false"
     width="60px"
     inkscape:zoom="10.65"
     inkscape:cx="39.43662"
     inkscape:cy="20.610329"
     inkscape:window-width="2556"
     inkscape:window-height="1391"
     inkscape:window-x="2560"
     inkscape:window-y="45"
     inkscape:window-maximized="1"
     inkscape:current-layer="svg4" />
  <path
     d="m 43.117431,9.1961743 c -0.242187,-0.01953 -0.484375,0.01563 -0.65625,0.101563 -0.347656,0.175781 -0.515625,0.394531 -0.683594,0.632812 -0.335937,0.4765627 -0.628906,1.1132807 -1.007812,2.0859377 -1.582031,4.054687 -6.269531,7.03125 -11.042969,8.015625 -0.957031,-0.558594 -2.066406,-0.882813 -3.25,-0.882813 -1.570312,0 -3.011719,0.5625 -4.136719,1.496094 -4.214843,-0.34375 -7.53125,-5.050781 -7.53125,-5.050781 l -1.832031,-2.75 v 9.660156 c -0.40625,0.574219 -0.703125,1.230469 -0.863281,1.9375 -0.554688,-0.382813 -1.128906,-0.707031 -1.722656,-0.921875 -0.75,-0.273438 -1.535157,-0.40625 -2.296875,-0.359375 -0.7656255,0.04687 -1.5000005,0.269531 -2.1562505,0.703125 -1.304688,0.871094 -1.9375,2.382812 -1.960938,3.957031 -0.023437,1.574219 0.523438,3.269531 1.59375,4.792969 1.074219,1.523437 2.4921885,2.621094 3.9921885,3.164062 0.675781,0.246094 1.378906,0.367188 2.066406,0.359375 1.363281,1.0625 3.492187,2.46875 5.625,3.402344 4.503906,1.96875 8.910156,2.910156 12.914062,2.527344 2.503907,-0.242188 4.847657,-1.019531 6.910157,-2.371094 0.324218,0.171875 0.648437,0.339844 0.972656,0.484375 2.644531,1.210938 5.105469,2.015625 6.953125,2.371094 -0.03125,0.550781 0.02734,1.140625 0.210937,1.742187 0.480469,1.558594 1.941407,2.347657 3.15625,2.929688 1.21875,0.582031 2.339844,0.890625 2.339844,0.890625 l 1.265625,0.347656 v -1.3125 c 0,0 0.0039,-1.300781 -0.121094,-2.75 -0.0625,-0.726562 -0.152343,-1.492187 -0.304687,-2.183594 -0.152344,-0.691406 -0.285156,-1.308593 -0.804688,-1.867187 -0.617187,-0.671875 -1.394531,-1.046875 -2.171875,-1.140625 -0.777343,-0.09766 -1.550781,0.08594 -2.160156,0.53125 -0.04297,0.02734 -0.07422,0.06641 -0.109375,0.09766 -1.347656,-1.058594 -3.359375,-2.257812 -5.707031,-3.378906 2.664062,-3.394531 3.710937,-8.5625 4.140625,-13.316406 0.433594,-4.835938 0.1875,-9.199219 -0.03125,-10.890625 C 44.636965,11.739143 44.570556,11.23133 44.468994,10.774299 44.367431,10.317268 44.394774,9.8875803 43.758056,9.4071123 43.5979,9.2860183 43.359619,9.2157053 43.117431,9.1961743 Z m -0.390625,3.3515627 c 0.183594,1.441406 0.4375,5.777343 0.01953,10.414062 -0.421875,4.65625 -1.570312,9.640625 -3.835937,12.414063 -0.06641,0.07813 -0.136719,0.144531 -0.199219,0.222656 -0.957031,-0.402344 -1.882812,-0.753906 -2.75,-1.046875 0.175782,-1.960938 -2.984374,-3.402344 -2.984374,-3.402344 0,0 0.863281,1.191406 0.863281,2.34375 0,2.3125 -11.863281,1.65625 -11.863281,1.65625 0,0 6.660156,2.445313 10.789063,1.90625 0.6875,0.476563 1.46875,0.996094 2.308593,1.511719 -1.542968,0.832031 -3.246093,1.328125 -5.097656,1.503906 -3.554687,0.34375 -7.644531,-0.492187 -11.921875,-2.363281 -1.375,-0.601563 -2.835937,-1.488281 -4.015625,-2.292969 1.289063,-0.875 1.914063,-2.375 1.9375,-3.9375 0.0039,-0.183594 -0.0039,-0.367187 -0.01563,-0.550781 0.48438,0.136719 0.988286,0.222656 1.51563,0.222656 1.488281,0 2.84375,-0.601562 3.839844,-1.570312 1.1875,1.558593 3.058594,2.570312 5.160156,2.570312 3.578125,0 6.5,-2.921875 6.5,-6.5 0,-1.503906 -0.523437,-2.886719 -1.386719,-3.992187 4.785157,-1.339844 9.289063,-4.410157 11.042969,-8.914063 0.03906,-0.105469 0.05078,-0.09766 0.09375,-0.195312 z m -27.75,6.242187 c 0.429688,0.476563 0.929688,0.976563 1.496094,1.453125 -0.53125,0.101563 -1.03125,0.277344 -1.496094,0.515625 z m 11.5,2.359375 c 2.496094,0 4.5,2.003906 4.5,4.5 0,0.28125 -0.03125,0.554688 -0.08203,0.824219 -0.308595,-1.332031 -1.496095,-2.324219 -2.91797,-2.324219 -0.08594,0 -0.164062,0.01953 -0.25,0.02734 0.710938,0.117191 1.25,0.730473 1.25,1.47266 0,0.828125 -0.671875,1.5 -1.5,1.5 -0.828125,0 -1.5,-0.671875 -1.5,-1.5 0,-0.40625 0.164063,-0.773437 0.425781,-1.042969 -0.851562,0.527344 -1.425781,1.464844 -1.425781,2.542969 0,1.421875 0.992188,2.609375 2.324219,2.917969 -0.269531,0.05078 -0.542969,0.08203 -0.824219,0.08203 -2.496094,0 -4.5,-2.003906 -4.5,-4.5 0,-2.496094 2.003906,-4.5 4.5,-4.5 z m -9,1 c 1.175781,0 2.203125,0.574219 2.839844,1.453125 -0.121094,0.359375 -0.210938,0.734375 -0.265625,1.121094 -0.429688,-0.355469 -0.972656,-0.574219 -1.574219,-0.574219 -0.07031,0 -0.136719,0.01563 -0.207031,0.01953 0.589844,0.101563 1.039062,0.613282 1.039062,1.230469 0,0.691406 -0.558593,1.25 -1.25,1.25 -0.6875,0 -1.25,-0.558594 -1.25,-1.25 0,-0.339844 0.136719,-0.644531 0.355469,-0.871094 -0.710937,0.441408 -1.1875,1.222658 -1.1875,2.121095 0,1.222656 0.878906,2.238281 2.042969,2.453125 -0.179688,0.02734 -0.359375,0.04687 -0.542969,0.04687 -0.765625,0 -1.464844,-0.242187 -2.042969,-0.65625 l -0.01563,-0.01172 -0.0078,-0.0078 h -0.0039 c -0.01563,-0.01172 -0.03125,-0.02734 -0.05469,-0.04297 -0.01563,-0.01172 -0.01953,-0.01172 -0.03516,-0.02344 -0.25,-0.585938 -0.542969,-1.167969 -0.933594,-1.722657 -0.105476,-0.148444 -0.226569,-0.269538 -0.335944,-0.410163 -0.03516,-0.203125 -0.07031,-0.410156 -0.07031,-0.625 0,-1.945312 1.554688,-3.5 3.5,-3.5 z m -9.242187,3 c 0.449218,-0.02344 0.945312,0.05469 1.476562,0.25 1.058594,0.382813 2.183594,1.226563 3.035156,2.4375 0.851563,1.207031 1.246094,2.527344 1.230469,3.609375 -0.01563,1.085938 -0.398437,1.875 -1.074219,2.324219 -0.671875,0.449219 -1.601562,0.515625 -2.660156,0.128906 -1.058594,-0.382812 -2.183594,-1.226562 -3.0351565,-2.4375 -0.851563,-1.207031 -1.246094,-2.527344 -1.230469,-3.609375 0,-0.01953 0.00391,-0.03516 0.00781,-0.05078 0.062503,1.316405 0.937503,2.347655 1.9921905,2.347655 1.105469,0 2,-1.121094 2,-2.5 0,-1.285156 -0.777344,-2.359375 -1.796875,-2.488281 0.01953,0 0.03516,-0.0078 0.05469,-0.01172 z m 40.109375,15.972656 c 0.277343,0.03516 0.585937,0.207032 0.9375,0.585938 -0.03125,-0.03125 0.195312,0.378906 0.316406,0.929687 0.121094,0.554688 0.207031,1.257813 0.265625,1.929688 0.05078,0.582031 0.03125,0.664062 0.05078,1.113281 -0.300781,-0.117187 -0.328125,-0.09375 -0.675781,-0.261719 -1.035156,-0.492187 -1.976563,-1.277343 -2.109375,-1.710937 -0.390625,-1.253906 0.0078,-2.019531 0.460937,-2.351563 0.226563,-0.164062 0.476563,-0.265625 0.753908,-0.234375 z"
     id="path2" />
</svg>
