<?xml version="1.0" encoding="UTF-8" standalone="no"?>
<!-- Svg Vector Icons : http://www.onlinewebfonts.com/icon -->

<svg
   version="1.1"
   x="0px"
   y="0px"
   viewBox="0 0 1000 1000"
   enable-background="new 0 0 1000 1000"
   xml:space="preserve"
   id="svg14"
   sodipodi:docname="systemInfo.svg"
   inkscape:version="1.1 (c4e8f9ed74, 2021-05-24)"
   xmlns:inkscape="http://www.inkscape.org/namespaces/inkscape"
   xmlns:sodipodi="http://sodipodi.sourceforge.net/DTD/sodipodi-0.dtd"
   xmlns="http://www.w3.org/2000/svg"
   xmlns:svg="http://www.w3.org/2000/svg"><defs
   id="defs18" /><sodipodi:namedview
   id="namedview16"
   pagecolor="#ffffff"
   bordercolor="#999999"
   borderopacity="1"
   inkscape:pageshadow="0"
   inkscape:pageopacity="0"
   inkscape:pagecheckerboard="0"
   showgrid="false"
   inkscape:zoom="0.75306872"
   inkscape:cx="474.06032"
   inkscape:cy="513.23337"
   inkscape:window-width="2556"
   inkscape:window-height="1391"
   inkscape:window-x="2560"
   inkscape:window-y="45"
   inkscape:window-maximized="1"
   inkscape:current-layer="svg14" />
<metadata
   id="metadata2"> Svg Vector Icons : http://www.onlinewebfonts.com/icon </metadata>
<g
   id="g12"
   transform="matrix(0.87269814,0,0,0.87269814,57.711365,54.578026)"><path
     d="M 500.6,297.3"
     id="path4" /><path
     d="M 500,10 C 229.4,10 10,229.4 10,500 10,770.6 229.4,990 500,990 770.6,990 990,770.6 990,500 990,229.4 770.6,10 500,10 Z m 0,826.9 C 314.2,836.9 163.1,685.8 163.1,500 163.1,314.2 314.2,163.1 500,163.1 c 185.8,0 336.9,151.1 336.9,336.9 0,185.8 -151.1,336.9 -336.9,336.9 z"
     id="path6" /><path
     d="m 423.4,288.2 c 0,42.3 34.3,76.6 76.6,76.6 42.3,0 76.6,-34.3 76.6,-76.6 0,-42.3 -34.3,-76.6 -76.6,-76.6 -42.3,0 -76.6,34.3 -76.6,76.6 z"
     id="path8" /><path
     d="M 508.9,410.7 H 491 c -37.2,0 -67.6,30.4 -67.6,67.6 v 242.4 c 0,37.2 30.4,67.6 67.6,67.6 h 17.9 c 37.2,0 67.6,-30.4 67.6,-67.6 V 478.3 c 0.1,-37.2 -30.4,-67.6 -67.6,-67.6 z"
     id="path10" /></g>
</svg>
