<?xml version="1.0" encoding="UTF-8" standalone="no"?>
<!-- Generator: Adobe Illustrator 18.1.1, SVG Export Plug-In . SVG Version: 6.00 Build 0)  -->

<svg
   version="1.1"
   id="Capa_1"
   x="0px"
   y="0px"
   viewBox="0 0 76 76"
   style="enable-background:new 0 0 76 76;"
   xml:space="preserve"
   sodipodi:docname="videoEditing.svg"
   inkscape:version="1.1 (c4e8f9ed74, 2021-05-24)"
   xmlns:inkscape="http://www.inkscape.org/namespaces/inkscape"
   xmlns:sodipodi="http://sodipodi.sourceforge.net/DTD/sodipodi-0.dtd"
   xmlns="http://www.w3.org/2000/svg"
   xmlns:svg="http://www.w3.org/2000/svg"><defs
   id="defs37" /><sodipodi:namedview
   id="namedview35"
   pagecolor="#ffffff"
   bordercolor="#999999"
   borderopacity="1"
   inkscape:pageshadow="0"
   inkscape:pageopacity="0"
   inkscape:pagecheckerboard="0"
   showgrid="false"
   inkscape:zoom="14.013158"
   inkscape:cx="38.035681"
   inkscape:cy="38"
   inkscape:window-width="2556"
   inkscape:window-height="1391"
   inkscape:window-x="2560"
   inkscape:window-y="45"
   inkscape:window-maximized="1"
   inkscape:current-layer="Capa_1" />
<g
   id="_x37_7_Essential_Icons_72_"
   transform="matrix(0.83978598,0,0,0.83978598,6.2006281,4.9706704)">
	<path
   id="Video_Camera"
   d="M 72.9,14.4 56,25.3 V 22 c 0,-4.4 -3.6,-8 -8,-8 H 8 c -4.4,0 -8,3.6 -8,8 v 32 c 0,4.4 3.6,8 8,8 h 40 c 4.4,0 8,-3.6 8,-8 v -3.3 l 16.9,10.9 c 1.9,1 3.1,-0.7 3.1,-1.7 V 16 c 0,-1 -1.1,-2.8 -3.1,-1.6 z M 52,54 c 0,2.2 -1.8,4 -4,4 H 8 C 5.8,58 4,56.2 4,54 V 22 c 0,-2.2 1.8,-4 4,-4 h 40 c 2.2,0 4,1.8 4,4 z M 72,56.3 56,46 V 30 L 72,19.7 Z" />
</g>
<g
   id="g4">
</g>
<g
   id="g6">
</g>
<g
   id="g8">
</g>
<g
   id="g10">
</g>
<g
   id="g12">
</g>
<g
   id="g14">
</g>
<g
   id="g16">
</g>
<g
   id="g18">
</g>
<g
   id="g20">
</g>
<g
   id="g22">
</g>
<g
   id="g24">
</g>
<g
   id="g26">
</g>
<g
   id="g28">
</g>
<g
   id="g30">
</g>
<g
   id="g32">
</g>
</svg>
