<?xml version="1.0" encoding="UTF-8" standalone="no"?>
<svg
   fill="#000000"
   viewBox="0 0 50 50"
   width="50px"
   height="50px"
   version="1.1"
   id="svg4"
   sodipodi:docname="virtualization.svg"
   inkscape:version="1.1 (c4e8f9ed74, 2021-05-24)"
   xmlns:inkscape="http://www.inkscape.org/namespaces/inkscape"
   xmlns:sodipodi="http://sodipodi.sourceforge.net/DTD/sodipodi-0.dtd"
   xmlns="http://www.w3.org/2000/svg"
   xmlns:svg="http://www.w3.org/2000/svg">
  <defs
     id="defs8" />
  <sodipodi:namedview
     id="namedview6"
     pagecolor="#ffffff"
     bordercolor="#999999"
     borderopacity="1"
     inkscape:pageshadow="0"
     inkscape:pageopacity="0"
     inkscape:pagecheckerboard="0"
     showgrid="false"
     inkscape:zoom="15.061374"
     inkscape:cx="27.354741"
     inkscape:cy="25.064114"
     inkscape:window-width="2556"
     inkscape:window-height="1391"
     inkscape:window-x="2560"
     inkscape:window-y="45"
     inkscape:window-maximized="1"
     inkscape:current-layer="svg4" />
  <path
     d="m 24.809193,3.037098 c -0.1008,0.0144 -0.198001,0.0432 -0.288001,0.0864 L 6.290734,10.957123 c -0.3744012,0.0648 -0.6696017,0.349201 -0.7488024,0.720003 0,0.018 0,0.0396 0,0.0576 -0.036,0.162 -0.0252,0.331201 0.0288,0.489602 l 1.1520037,17.942457 c 0.0144,0.273601 0.151201,0.529202 0.3744012,0.691202 l 6.8256215,4.953616 c -0.1116,0.543602 -0.2016,1.087204 -0.2016,1.670406 0,5.468417 5.090417,9.792031 11.174436,9.792031 6.08402,0 11.145635,-4.323614 11.145635,-9.792031 0,-0.568802 -0.0936,-1.108804 -0.2016,-1.641606 l 6.854422,-4.982416 c 0.223201,-0.162 0.360001,-0.417601 0.374401,-0.691202 l 1.180804,-18.144058 c 0.0036,-0.0576 0.0036,-0.1152 0,-0.172801 0,-0.0108 0,-0.018 0,-0.0288 0,-0.018 0,-0.0396 0,-0.0576 0,-0.0108 0,-0.018 0,-0.0288 -0.0324,-0.1728 -0.111601,-0.331201 -0.230401,-0.460801 0,-0.0108 0,-0.018 0,-0.0288 -0.09,-0.0864 -0.198001,-0.158401 -0.316801,-0.201601 L 25.269995,3.1234983 c -0.144001,-0.0684 -0.302401,-0.097201 -0.460802,-0.0864 z m 0.0864,1.9296062 16.387252,7.0272228 -16.387252,9.33123 -16.3872528,-9.33123 z m -0.0576,2.1024067 c -0.0396,0.0072 -0.0792,0.018 -0.1152,0.0288 -0.0684,0.0108 -0.1368,0.0324 -0.201601,0.0576 l -9.936032,4.2912141 c -0.316801,0.1404 -0.529201,0.446401 -0.547201,0.795602 -0.018,0.345602 0.1584,0.673203 0.460801,0.846003 l 9.936032,5.673619 c 0.284401,0.165601 0.637202,0.165601 0.921603,0 l 9.936032,-5.673619 c 0.302401,-0.1728 0.478801,-0.500401 0.460801,-0.846003 -0.018,-0.349201 -0.2304,-0.655202 -0.547201,-0.795602 L 25.269995,7.1555112 c -0.108,-0.0504 -0.226801,-0.0792 -0.345601,-0.0864 -0.0288,0 -0.0576,0 -0.0864,-3e-7 z m 0.0576,1.9584063 7.891225,3.3696108 -4.665615,2.649609 -1.958406,-1.152004 0.921603,-1.756806 c 0.0936,-0.1656 0.0756,-0.370801 -0.0468,-0.518401 C 26.9152,11.471925 26.7172,11.414325 26.537199,11.475525 l -1.353604,0.460802 0.835202,-0.979204 c 0.129601,-0.162 0.1332,-0.388801 0.0144,-0.558002 -0.1224,-0.1656 -0.3384,-0.234 -0.532801,-0.162 l -2.93761,1.209604 0.950403,-0.892803 c 0.1008,-0.1008 0.1476,-0.241201 0.1332,-0.381601 -0.018,-0.1404 -0.0972,-0.266401 -0.2196,-0.3384012 L 23.253988,9.7187194 Z m -2.620809,1.1232038 0.172801,0.1152 -2.332808,2.217607 c -0.1944,0.144001 -0.244801,0.410402 -0.1152,0.615603 0.1296,0.2016 0.392401,0.2736 0.604802,0.162 l 3.484811,-1.440005 -0.720002,0.835203 c -0.1656,0.154801 -0.190801,0.410402 -0.0612,0.597602 0.1296,0.187201 0.374401,0.252001 0.579601,0.1512 l 1.843206,-0.662402 -0.604802,1.123204 c -0.1116,0.216001 -0.036,0.478801 0.172801,0.604802 l 1.900806,1.094403 -2.304007,1.324805 -7.891226,-4.492815 z M 7.4715378,13.520332 23.973991,22.909162 V 40.85162 L 8.5371412,29.619583 Z m 34.8481122,0 L 41.254046,29.619583 25.817197,40.85162 V 22.909162 Z m -31.996903,3.974413 c -0.4860018,0.0612 -0.8424023,0.489601 -0.8064026,0.979203 l 0.7200026,9.907231 c 0.0144,0.273601 0.151201,0.529202 0.374401,0.691203 l 9.763231,6.969622 c 0.280801,0.208801 0.655203,0.237601 0.964803,0.0792 0.313201,-0.158401 0.507602,-0.478802 0.504002,-0.828003 L 21.612383,24.752368 c 0,-0.316801 -0.1656,-0.608402 -0.432001,-0.777603 l -10.252833,-6.36482 c -0.183601,-0.108 -0.396001,-0.1476 -0.604802,-0.1152 z m 28.339291,0 c -0.1224,0.0252 -0.241201,0.072 -0.345601,0.144 l -10.137633,6.16322 c -0.2664,0.169201 -0.432001,0.460801 -0.432001,0.777602 l -0.201601,10.425634 c -0.0144,0.352801 0.1764,0.684002 0.489602,0.849602 0.313201,0.165601 0.694802,0.140401 0.979203,-0.072 l 9.53283,-6.681621 c 0.234001,-0.158401 0.381602,-0.410401 0.403202,-0.691202 l 0.748802,-9.907232 c 0.0252,-0.262801 -0.0648,-0.525601 -0.2484,-0.720003 -0.180001,-0.1908 -0.435602,-0.298801 -0.702003,-0.288 -0.0288,0 -0.0576,0 -0.0864,0 z m -27.158487,2.649608 8.265626,5.155217 0.201601,8.179226 -7.920026,-5.644818 z m 26.208084,0.0288 -0.576002,7.689625 -7.718425,5.356817 0.144001,-8.092826 z m -22.118471,16.876854 8.755228,6.364821 c 0.324001,0.241201 0.770403,0.241201 1.094403,0 l 8.726428,-6.364821 c 0.0108,0.144001 0.0288,0.288001 0.0288,0.432002 0,4.320014 -4.082412,7.948825 -9.302429,7.948825 -5.220017,0 -9.33123,-3.628811 -9.33123,-7.948825 0,-0.147601 0.018,-0.288001 0.0288,-0.432002 z"
     id="path2"
     style="stroke-width:0.921603" />
</svg>
