<?xml version="1.0" encoding="UTF-8" standalone="no"?>
<!-- Generator: Adobe Illustrator 22.1.0, SVG Export Plug-In . SVG Version: 6.00 Build 0)  -->

<svg
   version="1.1"
   id="Layer_1"
   x="0px"
   y="0px"
   viewBox="0 0 40 40"
   xml:space="preserve"
   sodipodi:docname="vlc.svg"
   width="40"
   height="40"
   inkscape:version="1.1 (c4e8f9ed74, 2021-05-24)"
   xmlns:inkscape="http://www.inkscape.org/namespaces/inkscape"
   xmlns:sodipodi="http://sodipodi.sourceforge.net/DTD/sodipodi-0.dtd"
   xmlns="http://www.w3.org/2000/svg"
   xmlns:svg="http://www.w3.org/2000/svg"
   xmlns:rdf="http://www.w3.org/1999/02/22-rdf-syntax-ns#"
   xmlns:cc="http://creativecommons.org/ns#"
   xmlns:dc="http://purl.org/dc/elements/1.1/"><defs
   id="defs9" /><sodipodi:namedview
   id="namedview7"
   pagecolor="#ffffff"
   bordercolor="#999999"
   borderopacity="1"
   inkscape:pageshadow="0"
   inkscape:pageopacity="0"
   inkscape:pagecheckerboard="0"
   showgrid="false"
   width="40px"
   inkscape:zoom="23.533398"
   inkscape:cx="18.144426"
   inkscape:cy="19.610428"
   inkscape:window-width="2556"
   inkscape:window-height="1391"
   inkscape:window-x="2560"
   inkscape:window-y="45"
   inkscape:window-maximized="1"
   inkscape:current-layer="Layer_1" />
<title
   id="title2">vlc</title>
<path
   d="m 19.64476,22.178056 c 5,0 6.5,-1.8 6.8,-2.2 l -1.8,-5.8 c -0.5,0.5 -1.8,1.3 -4.9,1.3 -3.1,0 -4.2,-0.8 -4.7,-1.2 l -1.8,5.9 c 0.1,0.4 1.5,2 6.4,2 z m 0,-12.9 c 1.1,0 2.2,-0.2 3.2,-0.7 l -1.1,-3.6 c -0.1,-0.3 -0.3,-0.5 -0.5,-0.6 0,0 -0.2,-0.2 -1.3,-0.2 -1.1,0 -1.4,0.2 -1.4,0.2 -0.3,0.1 -0.5,0.3 -0.5,0.6 l -1.2,3.8 c 0.8,0.3 1.8,0.5 2.8,0.5 z m 14.2,26 c 0,-0.1 0,-0.1 0,-0.2 l -3.1,-10.2 c -0.1,-0.3 -0.4,-0.6 -0.8,-0.6 h -2.2 l 0.3,0.8 c -0.3,0.7 -2,3.2 -8.4,3.2 -6.1,0 -7.8,-2.3 -8.099999,-3.1 l 0.2,-0.9 H 9.5447614 c -0.4,0 -0.7,0.2 -0.8000003,0.6 l -3.1,10.2 c 0,0.1 0,0.1 0,0.2 v 0 c 0,0.1 0,0.2 0,0.3 0.1,0.3 0.4,0.6 0.7,0.6 H 33.14476 c 0.3,0 0.6,-0.3 0.7,-0.6 0,-0.1 0,-0.2 0,-0.3 z"
   id="path4" />
<metadata
   id="metadata826"><rdf:RDF><cc:Work
       rdf:about=""><dc:title>vlc</dc:title></cc:Work></rdf:RDF></metadata></svg>
