<?xml version="1.0" encoding="UTF-8" standalone="no"?>
<svg
   version="1.1"
   id="Layer_1"
   x="0px"
   y="0px"
   viewBox="0 0 100 100"
   xml:space="preserve"
   sodipodi:docname="vpn.svg"
   width="100"
   height="100"
   inkscape:version="1.1 (c4e8f9ed74, 2021-05-24)"
   xmlns:inkscape="http://www.inkscape.org/namespaces/inkscape"
   xmlns:sodipodi="http://sodipodi.sourceforge.net/DTD/sodipodi-0.dtd"
   xmlns="http://www.w3.org/2000/svg"
   xmlns:svg="http://www.w3.org/2000/svg"><defs
     id="defs11"><rect
       x="5.2437046"
       y="99.866162"
       width="102.60366"
       height="55.493141"
       id="rect7667" /></defs><sodipodi:namedview
     id="namedview9"
     pagecolor="#ffffff"
     bordercolor="#999999"
     borderopacity="1"
     inkscape:pageshadow="0"
     inkscape:pageopacity="0"
     inkscape:pagecheckerboard="0"
     showgrid="false"
     inkscape:zoom="6.1284891"
     inkscape:cx="68.695562"
     inkscape:cy="67.798114"
     inkscape:window-width="2556"
     inkscape:window-height="1391"
     inkscape:window-x="2560"
     inkscape:window-y="45"
     inkscape:window-maximized="1"
     inkscape:current-layer="g6" /><style
     type="text/css"
     id="style2">.st0{fill-rule:evenodd;clip-rule:evenodd;}</style><g
     id="g6"
     transform="matrix(0.77926007,0,0,0.74312558,5.9348278,3.212894)"><path
       class="st0"
       d="M 55.72,0 C 76.59,13.2 95.39,19.47 111.57,17.99 114.41,75.1 93.32,108.83 55.94,122.88 19.84,109.72 -1.5,77.42 0.08,17.11 19.07,18.1 37.69,14.01 55.72,0 Z m 0,7.04 C 74.19,18.73 90.85,24.26 105.16,22.97 107.67,73.52 88.98,103.38 55.9,115.84 23.97,104.19 5.06,75.62 6.46,22.23 23.27,23.11 39.75,19.47 55.72,7.08 Z"
       id="path4"
       sodipodi:nodetypes="ccccccccccc" /><text
       xml:space="preserve"
       transform="matrix(1.0802711,0,0,1.1327993,4.6709836,-85.096388)"
       id="text7665"
       style="font-style:normal;font-variant:normal;font-weight:bold;font-stretch:normal;font-size:40px;line-height:1.25;font-family:sans-serif;-inkscape-font-specification:'sans-serif, Bold';font-variant-ligatures:normal;font-variant-caps:normal;font-variant-numeric:normal;font-variant-east-asian:normal;white-space:pre;shape-inside:url(#rect7667);fill:#000000;fill-opacity:1;stroke:none"><tspan
         x="5.2441406"
         y="134.02523"
         id="tspan9614">VPN</tspan></text></g></svg>
