<?xml version="1.0" encoding="UTF-8" standalone="no"?>
<!-- Generator: Adobe Illustrator 18.1.1, SVG Export Plug-In . SVG Version: 6.00 Build 0)  -->

<svg
   version="1.1"
   id="Capa_1"
   x="0px"
   y="0px"
   viewBox="0 0 30.736 30.736"
   style="enable-background:new 0 0 30.736 30.736;"
   xml:space="preserve"
   sodipodi:docname="brightness.svg"
   inkscape:version="1.1.2 (0a00cf5339, 2022-02-04, custom)"
   xmlns:inkscape="http://www.inkscape.org/namespaces/inkscape"
   xmlns:sodipodi="http://sodipodi.sourceforge.net/DTD/sodipodi-0.dtd"
   xmlns="http://www.w3.org/2000/svg"
   xmlns:svg="http://www.w3.org/2000/svg"><defs
   id="defs85" /><sodipodi:namedview
   id="namedview83"
   pagecolor="#505050"
   bordercolor="#eeeeee"
   borderopacity="1"
   inkscape:pageshadow="0"
   inkscape:pageopacity="0"
   inkscape:pagecheckerboard="0"
   showgrid="false"
   inkscape:zoom="18.082572"
   inkscape:cx="12.995939"
   inkscape:cy="15.40157"
   inkscape:window-width="1916"
   inkscape:window-height="1031"
   inkscape:window-x="0"
   inkscape:window-y="45"
   inkscape:window-maximized="1"
   inkscape:current-layer="Capa_1" />
<g
   id="g50"
   transform="matrix(0.87830136,0,0,0.86467369,1.9276623,2.1043263)"
   style="stroke-width:1.1475">
	<path
   d="m 15.367,8.547 c -3.768,0 -6.822,3.059 -6.822,6.818 0,3.768 3.055,6.824 6.822,6.824 3.767,0 6.816,-3.057 6.816,-6.824 0.001,-3.76 -3.048,-6.818 -6.816,-6.818 z m 0.22,12.529 c 0,-1.262 0,-8.49 0,-11.414 3.154,0 5.705,2.559 5.705,5.703 0,3.153 -2.552,5.711 -5.705,5.711 z"
   id="path2"
   style="stroke-width:1.1475" />
	<path
   d="M 14.122,6.6 V 1.244 C 14.122,0.555 14.677,0 15.363,0 v 0 c 0.691,0 1.247,0.555 1.247,1.244 v 0 5.356 c 0,0.688 -0.556,1.242 -1.247,1.242 v 0 c -0.686,0 -1.241,-0.555 -1.241,-1.242 z"
   id="path4"
   style="stroke-width:1.1475" />
	<path
   d="m 14.122,29.488 v -5.35 c 0,-0.689 0.556,-1.246 1.242,-1.246 v 0 c 0.691,0 1.247,0.557 1.247,1.246 v 0 5.35 c 0,0.689 -0.556,1.248 -1.247,1.248 v 0 c -0.687,0 -1.242,-0.558 -1.242,-1.248 z"
   id="path6"
   style="stroke-width:1.1475" />
	<path
   d="m 20.691,10.045 c -0.485,-0.484 -0.485,-1.273 0,-1.758 v 0 l 3.784,-3.785 c 0.486,-0.484 1.273,-0.484 1.761,0 v 0 c 0.485,0.486 0.485,1.275 0,1.76 v 0 l -3.788,3.783 c -0.241,0.242 -0.56,0.367 -0.879,0.367 v 0 c -0.319,0 -0.637,-0.125 -0.878,-0.367 z"
   id="path8"
   style="stroke-width:1.1475" />
	<path
   d="m 4.498,26.234 c -0.486,-0.484 -0.486,-1.273 0,-1.76 v 0 l 3.788,-3.783 c 0.487,-0.484 1.274,-0.484 1.76,0 v 0 c 0.488,0.48 0.488,1.271 0,1.754 v 0 L 6.263,26.234 C 6.017,26.477 5.7,26.596 5.38,26.596 v 0 c -0.319,0 -0.637,-0.119 -0.882,-0.362 z"
   id="path10"
   style="stroke-width:1.1475" />
	<path
   d="m 24.139,16.613 c -0.689,0 -1.25,-0.559 -1.25,-1.248 v 0 c 0,-0.684 0.561,-1.242 1.25,-1.242 v 0 h 5.35 c 0.689,0 1.246,0.559 1.246,1.242 v 0 c 0,0.689 -0.557,1.248 -1.246,1.248 v 0 z"
   id="path12"
   style="stroke-width:1.1475" />
	<path
   d="M 1.244,16.613 C 0.553,16.613 0,16.055 0,15.365 v 0 c 0,-0.684 0.553,-1.242 1.244,-1.242 v 0 h 5.349 c 0.688,0 1.249,0.559 1.249,1.242 v 0 c 0,0.689 -0.561,1.248 -1.249,1.248 v 0 z"
   id="path14"
   style="stroke-width:1.1475" />
	<path
   d="m 24.476,26.234 -3.784,-3.789 c -0.485,-0.482 -0.485,-1.273 0,-1.754 v 0 c 0.481,-0.484 1.274,-0.484 1.757,0 v 0 l 3.788,3.783 c 0.485,0.486 0.485,1.275 0,1.76 v 0 c -0.247,0.242 -0.564,0.361 -0.883,0.361 v 0 c -0.323,0.001 -0.639,-0.118 -0.878,-0.361 z"
   id="path16"
   style="stroke-width:1.1475" />
	<path
   d="M 8.285,10.045 4.498,6.262 c -0.486,-0.484 -0.486,-1.273 0,-1.76 v 0 c 0.49,-0.484 1.279,-0.484 1.765,0 v 0 l 3.783,3.785 c 0.488,0.484 0.488,1.273 0,1.758 v 0 C 9.8,10.287 9.484,10.412 9.164,10.412 v 0 c -0.318,0 -0.638,-0.125 -0.879,-0.367 z"
   id="path18"
   style="stroke-width:1.1475" />
	<g
   id="g20"
   style="stroke-width:1.1475">
	</g>
	<g
   id="g22"
   style="stroke-width:1.1475">
	</g>
	<g
   id="g24"
   style="stroke-width:1.1475">
	</g>
	<g
   id="g26"
   style="stroke-width:1.1475">
	</g>
	<g
   id="g28"
   style="stroke-width:1.1475">
	</g>
	<g
   id="g30"
   style="stroke-width:1.1475">
	</g>
	<g
   id="g32"
   style="stroke-width:1.1475">
	</g>
	<g
   id="g34"
   style="stroke-width:1.1475">
	</g>
	<g
   id="g36"
   style="stroke-width:1.1475">
	</g>
	<g
   id="g38"
   style="stroke-width:1.1475">
	</g>
	<g
   id="g40"
   style="stroke-width:1.1475">
	</g>
	<g
   id="g42"
   style="stroke-width:1.1475">
	</g>
	<g
   id="g44"
   style="stroke-width:1.1475">
	</g>
	<g
   id="g46"
   style="stroke-width:1.1475">
	</g>
	<g
   id="g48"
   style="stroke-width:1.1475">
	</g>
</g>
<g
   id="g52">
</g>
<g
   id="g54">
</g>
<g
   id="g56">
</g>
<g
   id="g58">
</g>
<g
   id="g60">
</g>
<g
   id="g62">
</g>
<g
   id="g64">
</g>
<g
   id="g66">
</g>
<g
   id="g68">
</g>
<g
   id="g70">
</g>
<g
   id="g72">
</g>
<g
   id="g74">
</g>
<g
   id="g76">
</g>
<g
   id="g78">
</g>
<g
   id="g80">
</g>
</svg>
