<?xml version="1.0" encoding="UTF-8" standalone="no"?>
<!-- Created with Inkscape (http://www.inkscape.org/) -->

<svg
   inkscape:export-ydpi="96"
   inkscape:export-xdpi="96"
   inkscape:export-filename="/tmp/paperPlane.jpg"
   sodipodi:docname="icon_cade.svg"
   inkscape:version="1.1.1 (3bf5ae0d25, 2021-09-20, custom)"
   width="400mm"
   height="400mm"
   viewBox="0 0 400 400"
   version="1.1"
   id="svg5"
   xmlns:inkscape="http://www.inkscape.org/namespaces/inkscape"
   xmlns:sodipodi="http://sodipodi.sourceforge.net/DTD/sodipodi-0.dtd"
   xmlns="http://www.w3.org/2000/svg"
   xmlns:svg="http://www.w3.org/2000/svg">
  <sodipodi:namedview
     id="namedview7"
     pagecolor="#ffffff"
     bordercolor="#999999"
     borderopacity="1"
     inkscape:pageshadow="0"
     inkscape:pageopacity="0"
     inkscape:pagecheckerboard="0"
     inkscape:document-units="mm"
     showgrid="false"
     inkscape:zoom="0.4859603"
     inkscape:cx="903.36597"
     inkscape:cy="885.87483"
     inkscape:window-width="2556"
     inkscape:window-height="1391"
     inkscape:window-x="0"
     inkscape:window-y="45"
     inkscape:window-maximized="1"
     inkscape:current-layer="g8636"
     width="400mm">
    <inkscape:grid
       type="xygrid"
       id="grid824" />
  </sodipodi:namedview>
  <defs
     id="defs2" />
  <g
     inkscape:label="Layer 1"
     inkscape:groupmode="layer"
     id="layer1">
    <g
       id="g8636"
       inkscape:export-filename="/tmp/paperPlane.jpg"
       inkscape:export-xdpi="96"
       inkscape:export-ydpi="96">
      <g
         id="g3436"
         transform="matrix(3.4361959,0,0,3.4361959,-157.89255,-537.5311)"
         style="stroke-width:0.291019">
        <path
           style="fill:none;stroke:none;stroke-width:0.0769988px;stroke-linecap:butt;stroke-linejoin:miter;stroke-opacity:1"
           d="m 88.533882,239.31579 -17.03528,-26.49683 -5.29167,9.26042 -3.96875,-17.19792 -10.98339,-12.22483 107.556298,1.64149 z"
           id="path1941-7"
           sodipodi:nodetypes="ccccccc" />
        <path
           style="fill:none;stroke:none;stroke-width:0.0769988px;stroke-linecap:butt;stroke-linejoin:miter;stroke-opacity:1"
           d="M 62.238182,204.88146 158.81109,194.29812 71.520202,212.69658"
           id="path1943-8"
           sodipodi:nodetypes="ccc" />
        <path
           style="fill:none;stroke:none;stroke-width:0.0769988px;stroke-linecap:butt;stroke-linejoin:miter;stroke-opacity:1"
           d="m 66.121752,222.27296 9.21087,-3.60206"
           id="path1945-4"
           sodipodi:nodetypes="cc" />
        <path
           style="fill:#000000;stroke:none;stroke-width:0.291019;stroke-linecap:square;stroke-linejoin:miter;stroke-miterlimit:1;stroke-dasharray:none;paint-order:stroke fill markers"
           d="m 80.191632,225.98299 c -4.61516,-7.17938 -8.35628,-13.08532 -8.3136,-13.12432 0.0899,-0.0821 85.684658,-18.12868 85.736848,-18.07649 0.0282,0.0282 -67.472258,43.31403 -68.675918,44.03956 l -0.35615,0.21467 z"
           id="path4115-5" />
        <path
           style="fill:#000000;stroke:none;stroke-width:0.291019;stroke-linejoin:round"
           d="m 56.971682,198.77573 c -2.94086,-3.27322 -5.34188,-5.95416 -5.33559,-5.95766 0.006,-0.004 16.5671,0.24714 36.8018,0.55697 20.234708,0.30984 40.536778,0.62043 45.115728,0.6902 4.57895,0.0698 10.29601,0.158 12.70459,0.19605 2.40858,0.038 5.50532,0.0832 6.88165,0.10029 1.37633,0.0171 4.35045,0.3425 4.43744,0.35932 0.0936,0.0181 -20.67962,1.82004 -48.3363,4.84835 -25.694668,2.81347 -46.763648,5.12493 -46.819938,5.13659 -0.0848,0.0175 -1.02203,-1.00242 -5.44938,-5.93011 z"
           id="path4265-0"
           sodipodi:nodetypes="ssssssssss" />
        <path
           style="fill:#000000;stroke:none;stroke-width:0.291019;stroke-linejoin:round"
           d="m 66.153752,220.91766 c -1.17336,-4.72781 -3.56151,-15.5426 -3.44769,-15.61295 0.0786,-0.0486 1.41657,-0.22589 2.9732,-0.394 3.10877,-0.33572 9.44091,-0.99265 53.600628,-5.87737 35.02292,-3.87405 38.31047,-4.28035 38.31047,-4.28035 0,0 -14.64711,2.52135 -22.6574,4.2017 -30.13393,6.32129 -58.832608,12.40081 -61.808998,13.09359 l -1.64676,0.3833 -2.58926,4.53499 -2.58927,4.53499 z"
           id="path4341-3"
           sodipodi:nodetypes="sssscsscccs" />
        <path
           style="fill:#000000;stroke:none;stroke-width:0.291019;stroke-linejoin:round"
           d="m 66.954642,221.48418 c 0.11764,-0.18355 1.18196,-2.03345 2.36517,-4.11088 1.1832,-2.07744 2.18931,-3.77705 2.23579,-3.77691 0.0465,1.3e-4 0.26542,0.29107 0.48652,0.64654 0.2211,0.35546 0.93829,1.49097 1.59375,2.52335 1.14489,1.80324 1.17993,1.8816 0.89108,1.9927 -0.4182,0.16086 -7.33206,2.87471 -7.58239,2.97626 -0.17578,0.0713 -0.1744,0.0368 0.0101,-0.25106 z"
           id="path4454-6" />
      </g>
    </g>
  </g>
</svg>
