<?xml version="1.0" encoding="UTF-8" standalone="no"?>
<svg
   enable-background="new 0 0 64 64"
   height="64px"
   id="Layer_1"
   version="1.1"
   viewBox="0 0 64 64"
   width="64px"
   xml:space="preserve"
   sodipodi:docname="connecLan.svg"
   inkscape:version="1.1 (c4e8f9ed74, 2021-05-24)"
   xmlns:inkscape="http://www.inkscape.org/namespaces/inkscape"
   xmlns:sodipodi="http://sodipodi.sourceforge.net/DTD/sodipodi-0.dtd"
   xmlns="http://www.w3.org/2000/svg"
   xmlns:svg="http://www.w3.org/2000/svg"><defs
     id="defs21" /><sodipodi:namedview
     id="namedview19"
     pagecolor="#ffffff"
     bordercolor="#999999"
     borderopacity="1"
     inkscape:pageshadow="0"
     inkscape:pageopacity="0"
     inkscape:pagecheckerboard="0"
     showgrid="false"
     inkscape:zoom="16.640625"
     inkscape:cx="31.969953"
     inkscape:cy="32"
     inkscape:window-width="2556"
     inkscape:window-height="1391"
     inkscape:window-x="2560"
     inkscape:window-y="45"
     inkscape:window-maximized="1"
     inkscape:current-layer="Layer_1" /><g
     id="g16"
     style="stroke:#000000"><line
       fill="none"
       stroke="#4D4D4D"
       stroke-linecap="round"
       stroke-linejoin="round"
       stroke-miterlimit="10"
       stroke-width="2"
       x1="17.5"
       x2="22.5"
       y1="41.3"
       y2="41.3"
       id="line2"
       style="stroke:#000000" /><path
       d="M23,24.8   c0-1.1,0.9-2,2-2h13v-7H9v19h14V24.8z"
       fill="none"
       stroke="#4D4D4D"
       stroke-linecap="round"
       stroke-linejoin="round"
       stroke-miterlimit="10"
       id="path4"
       style="stroke:#000000" /><rect
       fill="none"
       height="19"
       stroke="#4D4D4D"
       stroke-linecap="round"
       stroke-linejoin="round"
       stroke-miterlimit="10"
       width="29"
       x="26"
       y="25.7"
       id="rect6"
       style="stroke:#000000" /><line
       fill="none"
       stroke="#4D4D4D"
       stroke-linecap="round"
       stroke-linejoin="round"
       stroke-miterlimit="10"
       stroke-width="2"
       x1="34.5"
       x2="46.5"
       y1="51.3"
       y2="51.3"
       id="line8"
       style="stroke:#000000" /><path
       d="   M23,24.8c0-1.1,0.9-2,2-2h16v-8c0-1.1-0.9-2-2-2H8c-1.1,0-2,0.9-2,2v20.9c0,1.1,0.9,2,2,2h15V24.8z"
       fill="none"
       stroke="#4D4D4D"
       stroke-linecap="round"
       stroke-linejoin="round"
       stroke-miterlimit="10"
       stroke-width="2"
       id="path10"
       style="stroke:#000000" /><path
       d="   M58,45.7c0,1.1-0.9,2-2,2H25c-1.1,0-2-0.9-2-2V24.8c0-1.1,0.9-2,2-2h31c1.1,0,2,0.9,2,2V45.7z"
       fill="none"
       stroke="#4D4D4D"
       stroke-linecap="round"
       stroke-linejoin="round"
       stroke-miterlimit="10"
       stroke-width="2"
       id="path12"
       style="stroke:#000000" /><line
       fill="none"
       stroke="#4D4D4D"
       stroke-linecap="round"
       stroke-linejoin="round"
       stroke-miterlimit="10"
       x1="50.5"
       x2="50.5"
       y1="39.7"
       y2="30"
       id="line14"
       style="stroke:#000000" /></g></svg>
