<?xml version="1.0" encoding="UTF-8" standalone="no"?>
<svg
   width="23"
   height="23"
   viewBox="0 0 23 23"
   version="1.1"
   id="svg6"
   sodipodi:docname="key.svg"
   inkscape:version="1.1 (c4e8f9ed74, 2021-05-24)"
   xmlns:inkscape="http://www.inkscape.org/namespaces/inkscape"
   xmlns:sodipodi="http://sodipodi.sourceforge.net/DTD/sodipodi-0.dtd"
   xmlns="http://www.w3.org/2000/svg"
   xmlns:svg="http://www.w3.org/2000/svg"
   xmlns:rdf="http://www.w3.org/1999/02/22-rdf-syntax-ns#"
   xmlns:cc="http://creativecommons.org/ns#"
   xmlns:dc="http://purl.org/dc/elements/1.1/">
  <defs
     id="defs10" />
  <sodipodi:namedview
     id="namedview8"
     pagecolor="#ffffff"
     bordercolor="#999999"
     borderopacity="1"
     inkscape:pageshadow="0"
     inkscape:pageopacity="0"
     inkscape:pagecheckerboard="0"
     showgrid="false"
     width="25px"
     inkscape:zoom="37.653436"
     inkscape:cx="9.7202284"
     inkscape:cy="9.9459714"
     inkscape:window-width="2556"
     inkscape:window-height="1391"
     inkscape:window-x="2560"
     inkscape:window-y="45"
     inkscape:window-maximized="1"
     inkscape:current-layer="svg6" />
  <title
     id="title2">key</title>
  <path
     d="m 16.428666,7.5725339 a 1.54,1.54 0 0 1 -1.5,-1.5 1.5,1.5 0 0 1 3,0 1.54,1.54 0 0 1 -1.5,1.5 z m -1.5,-5 a 5.55,5.55 0 0 0 -5.4999996,5.5 6.81,6.81 0 0 0 0.6999996,2.8000001 l -7.6999999,7.7 v 2 h 4 v -2 h 2 v -2 h 1.9999999 l 3.2,-3.2 a 5.85,5.85 0 0 0 1.3,0.2 5.55,5.55 0 0 0 5.5,-5.5000001 5.55,5.55 0 0 0 -5.5,-5.5 z"
     id="path4" />
  <metadata
     id="metadata827">
    <rdf:RDF>
      <cc:Work
         rdf:about="">
        <dc:title>key</dc:title>
      </cc:Work>
    </rdf:RDF>
  </metadata>
</svg>
