<?xml version="1.0" encoding="UTF-8" standalone="no"?>
<svg
   viewBox="0 0 160 160"
   version="1.1"
   id="svg16"
   sodipodi:docname="libreoffice.svg"
   inkscape:version="1.1 (c4e8f9ed74, 2021-05-24)"
   width="160"
   height="160"
   xmlns:inkscape="http://www.inkscape.org/namespaces/inkscape"
   xmlns:sodipodi="http://sodipodi.sourceforge.net/DTD/sodipodi-0.dtd"
   xmlns="http://www.w3.org/2000/svg"
   xmlns:svg="http://www.w3.org/2000/svg">
  <defs
     id="defs20" />
  <sodipodi:namedview
     id="namedview18"
     pagecolor="#ffffff"
     bordercolor="#999999"
     borderopacity="1"
     inkscape:pageshadow="0"
     inkscape:pageopacity="0"
     inkscape:pagecheckerboard="0"
     showgrid="false"
     inkscape:zoom="2.9416747"
     inkscape:cx="44.192513"
     inkscape:cy="71.557877"
     inkscape:window-width="2556"
     inkscape:window-height="1391"
     inkscape:window-x="2560"
     inkscape:window-y="45"
     inkscape:window-maximized="1"
     inkscape:current-layer="svg16"
     width="160px" />
  <linearGradient
     id="a"
     gradientUnits="userSpaceOnUse"
     x1="108.00134"
     x2="20.001341"
     y1="122"
     y2="6"
     gradientTransform="translate(-147.23829,-3.4347565)">
    <stop
       offset="0"
       stop-color="#e6e6e6"
       id="stop2" />
    <stop
       offset="1"
       stop-color="#fff"
       id="stop4" />
  </linearGradient>
  <linearGradient
     id="b"
     gradientTransform="matrix(7.99974,0,0,7.9977797,-873.96742,-7808.7674)"
     gradientUnits="userSpaceOnUse"
     x1="122.75008"
     x2="111.74973"
     y1="991.62115"
     y2="977.11713">
    <stop
       offset="0"
       stop-color="#535353"
       id="stop7" />
    <stop
       offset="1"
       stop-color="#7e7e7e"
       id="stop9" />
  </linearGradient>
  <path
     d="m 33.107286,16.910329 c -0.25037,0 -0.50072,0.01116 -0.75,0.03516 -3.66708,0.6998 -4.56576,2.266247 -4.5,5.998047 V 138.91228 c 4e-4,4.1875 1.81149,5.99765 6,5.99805 h 91.998054 c 4.1885,-4e-4 5.99764,-1.81055 5.99804,-5.99805 V 67.093923 c 0.048,-2.1119 -0.78004,-4.230247 -2.25,-5.748047 L 87.443236,19.195485 c -1.51819,-1.4692 -3.63759,-2.2989 -5.75,-2.25 h -47.83595 c -0.24919,-0.024 -0.49962,-0.03516 -0.75,-0.03516 z"
     fill="url(#b)"
     id="path12"
     style="fill:none;stroke:#000000;stroke-width:6;stroke-miterlimit:4;stroke-dasharray:none;stroke-opacity:1"
     sodipodi:nodetypes="scccccccccccss" />
</svg>
