<?xml version="1.0" encoding="UTF-8" standalone="no"?>
<svg
   version="1.1"
   x="0px"
   y="0px"
   width="334.371px"
   height="380.563px"
   viewBox="0 0 334.371 380.563"
   enable-background="new 0 0 334.371 380.563"
   xml:space="preserve"
   id="svg27"
   sodipodi:docname="pdf.svg"
   inkscape:version="1.1 (c4e8f9ed74, 2021-05-24)"
   xmlns:inkscape="http://www.inkscape.org/namespaces/inkscape"
   xmlns:sodipodi="http://sodipodi.sourceforge.net/DTD/sodipodi-0.dtd"
   xmlns="http://www.w3.org/2000/svg"
   xmlns:svg="http://www.w3.org/2000/svg"><defs
   id="defs31" /><sodipodi:namedview
   id="namedview29"
   pagecolor="#505050"
   bordercolor="#eeeeee"
   borderopacity="1"
   inkscape:pageshadow="0"
   inkscape:pageopacity="0"
   inkscape:pagecheckerboard="0"
   showgrid="false"
   inkscape:zoom="2.5751322"
   inkscape:cx="161.15677"
   inkscape:cy="106.59647"
   inkscape:window-width="2556"
   inkscape:window-height="1391"
   inkscape:window-x="2560"
   inkscape:window-y="45"
   inkscape:window-maximized="1"
   inkscape:current-layer="icon_PDF_file" />
<g
   id="icon_PDF_file">
	
	
	
	
	<g
   id="g6234"><g
     id="contour_1"
     style="fill:none">
		<polygon
   fill="#ffffff"
   points="51.791,356.646 51.791,23.99 204.497,23.99 282.646,102.066 282.646,356.646   "
   id="polygon2"
   style="fill:none" />
		<path
   d="M201.186,31.99l73.46,73.393v243.264H59.791V31.99H201.186 M207.809,15.99H43.791v348.657h246.854V98.75L207.809,15.99    L207.809,15.99z"
   id="path4"
   style="fill:none" />
	</g><g
     id="contour_2">
		<polygon
   fill="#ffffff"
   points="51.791,356.646 51.791,23.99 204.497,23.99 206.309,25.8 206.309,100.327 280.904,100.327     282.646,102.066 282.646,356.646   "
   id="polygon7"
   style="fill:#ffffff;fill-opacity:0;opacity:1" />
		<path
   d="M198.309,31.99v60.337v16h16h60.337v240.32H59.791V31.99H198.309 M207.809,15.99H43.791v348.657h246.854V98.75    l-6.43-6.424h-69.907V22.484L207.809,15.99L207.809,15.99z"
   id="path9" />
	</g><g
     id="triangle">
		<polygon
   points="219.643,87.75 219.643,48.667 258.309,86.38 258.309,87.75   "
   id="polygon12" />
		<path
   d="M227.643,67.646l12.41,12.104h-12.41V67.646 M222.641,40.417h-10.998V95.75h54.666V83.008L222.641,40.417L222.641,40.417z    "
   id="path14" />
	</g><g
     id="red_square">
		<path
   id="polygon17"
   d="M 37.291016 152.93555 L 22.544922 167.68164 L 22.544922 284.49023 L 311.89258 284.49023 L 311.89258 167.68164 L 297.14648 152.93555 L 297.14648 171.48828 L 37.291016 171.48828 L 37.291016 152.93555 z M 60.835938 187.82617 L 97.865234 187.82617 C 115.34523 187.82617 124.89064 197.02641 124.89062 213.81641 C 124.89065 230.83641 114.99984 241.76172 99.589844 241.76172 L 78.085938 241.76172 L 78.085938 271.66211 L 60.835938 271.66211 L 60.835938 187.82617 z M 135.70117 187.82617 L 168.47656 187.82617 C 181.35656 187.82617 189.29102 190.70133 195.04102 197.48633 C 201.59602 205.42133 205.16016 216.6925 205.16016 229.6875 C 205.16016 242.7975 201.59602 254.06672 195.04102 261.88672 C 189.29102 268.67172 181.24156 271.66211 168.47656 271.66211 L 135.70117 271.66211 L 135.70117 187.82617 z M 218.38477 187.82617 L 277.26562 187.82617 L 277.26562 202.20117 L 235.63477 202.20117 L 235.63477 221.17773 L 272.32031 221.17773 L 272.32031 235.55273 L 235.63477 235.55273 L 235.63477 271.66211 L 218.38477 271.66211 L 218.38477 187.82617 z M 78.085938 202.20117 L 78.085938 227.38672 L 94.185547 227.38672 C 103.38555 227.38672 107.64062 223.36133 107.64062 214.73633 C 107.64065 206.22633 103.38555 202.20117 94.185547 202.20117 L 78.085938 202.20117 z M 152.95117 202.20117 L 152.95117 257.28711 L 168.47656 257.28711 C 181.47156 257.28711 187.91016 248.20273 187.91016 229.80273 C 187.91016 211.28773 181.47156 202.20117 168.47656 202.20117 L 152.95117 202.20117 z " />
		<path
   fill="#000000"
   d="M303.646,168.627l1.747,1.747V277.99H29.044V170.374l1.747-1.747v9.362h13h246.854h13V168.627     M290.646,137.242v27.747H43.791v-27.747l-27.747,27.747V290.99h302.349V164.989L290.646,137.242L290.646,137.242z"
   id="path19" />
	</g><rect
     x="52.096"
     y="189.324"
     fill="none"
     width="232.826"
     height="87.834"
     id="rect22" /></g>
	
</g>
</svg>
