<svg xmlns="http://www.w3.org/2000/svg" viewBox="0 0 32 32">
    <path d="M 4 4 L 4 6 L 6 6 L 6 4 L 4 4 z M 8 4 L 8 6 L 10 6 L 10 4 L 8 4 z M 12 4 L 12 6 L 14 6 L 14 4 L 12 4 z M 16 4 L 16 6 L 18 6 L 18 4 L 16 4 z M 20 4 L 20 6 L 22 6 L 22 4 L 20 4 z M 24 4 L 24 6 L 26 6 L 26 4 L 24 4 z M 4 8 L 4 10 L 6 10 L 6 8 L 4 8 z M 24 8 L 24 10 L 26 10 L 26 8 L 24 8 z M 4 12 L 4 14 L 6 14 L 6 12 L 4 12 z M 24 12 L 24 14 L 26 14 L 26 12 L 24 12 z M 14.5 13 L 14.1875 13.40625 L 13 15 L 9 15 L 8 15 L 8 16 L 8 27 L 8 28 L 9 28 L 27 28 L 28 28 L 28 27 L 28 16 L 28 15 L 27 15 L 23 15 L 21.8125 13.40625 L 21.5 13 L 21 13 L 15 13 L 14.5 13 z M 15.5 15 L 20.5 15 L 21.6875 16.59375 L 22 17 L 22.5 17 L 26 17 L 26 26 L 10 26 L 10 17 L 13.5 17 L 14 17 L 14.3125 16.59375 L 15.5 15 z M 4 16 L 4 18 L 6 18 L 6 16 L 4 16 z M 18 17 C 15.802706 17 14 18.802706 14 21 C 14 23.197294 15.802706 25 18 25 C 20.197294 25 22 23.197294 22 21 C 22 18.802706 20.197294 17 18 17 z M 18 19 C 19.116414 19 20 19.883586 20 21 C 20 22.116414 19.116414 23 18 23 C 16.883586 23 16 22.116414 16 21 C 16 19.883586 16.883586 19 18 19 z M 4 20 L 4 22 L 6 22 L 6 20 L 4 20 z"/>
</svg>