<?xml version="1.0" encoding="UTF-8" standalone="no"?>
<!-- Svg Vector Icons : http://www.onlinewebfonts.com/icon -->

<svg
   version="1.1"
   x="0px"
   y="0px"
   viewBox="0 0 1100 1100"
   enable-background="new 0 0 1000 1000"
   xml:space="preserve"
   id="svg8"
   sodipodi:docname="virtualization.svg"
   width="1100"
   height="1100"
   inkscape:version="1.1 (c4e8f9ed74, 2021-05-24)"
   xmlns:inkscape="http://www.inkscape.org/namespaces/inkscape"
   xmlns:sodipodi="http://sodipodi.sourceforge.net/DTD/sodipodi-0.dtd"
   xmlns="http://www.w3.org/2000/svg"
   xmlns:svg="http://www.w3.org/2000/svg"><defs
   id="defs12" /><sodipodi:namedview
   id="namedview10"
   pagecolor="#ffffff"
   bordercolor="#999999"
   borderopacity="1"
   inkscape:pageshadow="0"
   inkscape:pageopacity="0"
   inkscape:pagecheckerboard="0"
   showgrid="false"
   width="1100px"
   inkscape:zoom="0.5325"
   inkscape:cx="614.08451"
   inkscape:cy="526.76056"
   inkscape:window-width="2556"
   inkscape:window-height="1391"
   inkscape:window-x="2560"
   inkscape:window-y="45"
   inkscape:window-maximized="1"
   inkscape:current-layer="svg8" />
<metadata
   id="metadata2"> Svg Vector Icons : http://www.onlinewebfonts.com/icon </metadata>
<g
   id="g6"
   transform="translate(51.623019,46.84325)"><path
     d="m 310.3,343.7 -50.2,-50.5 c -13.2,8.3 -29,11.9 -44.2,11.9 -48.5,0 -88.8,-39.7 -88.8,-88.6 0,-49.1 40.3,-89.4 88.8,-89.4 49.1,0 89.4,40.3 89.4,89.4 0,14.9 -4.4,30.4 -12.1,43.6 l 50.2,50.5 c 37,-30.6 82.8,-50.5 133,-54.9 v -71.2 c -15.4,-4.4 -28.7,-12.1 -39.2,-22.6 -16.6,-16.3 -26.5,-38.6 -26.5,-63.2 0,-48.8 40.3,-88.5 89.4,-88.5 48.3,0 88.6,39.7 88.6,88.5 0,24.6 -9.7,46.9 -26.2,63.2 -10.5,10.5 -24.3,18.2 -39.2,22.6 v 71.2 c 50,4.4 96,24.3 133,54.9 l 50,-50.5 c -7.5,-13.2 -11.9,-28.4 -11.9,-43.6 0,-49.6 40,-89.4 89.4,-89.4 48.6,0 88.6,40.3 88.6,89.4 0,48.8 -40,88.6 -88.6,88.6 -15.5,0 -30.9,-3.6 -44.4,-11.9 l -49.9,50.5 c 30.1,36.7 49.9,83 55.1,133 h 70.6 c 3.9,-15.2 12.1,-28.4 22.6,-39.7 16.5,-15.7 38.6,-25.9 63.5,-25.9 24,0 46.3,10.2 62.3,25.9 v 0.3 c 16.6,16 26.5,38.3 26.5,62.9 0,24.3 -10,46.9 -26.5,62.6 v 0 c -16,16.3 -38.3,25.9 -62.3,25.9 -24.9,0 -46.9,-9.7 -63.5,-25.9 -10.5,-10.2 -18.8,-24.5 -22.6,-39.4 h -70.6 c -5,50.2 -25.1,96.6 -55.1,133.2 l 49.6,49.9 c 13.8,-7.7 29.2,-11.9 44.7,-11.9 48.6,0 88.6,40 88.6,88.6 0,49.4 -40,89.4 -88.6,89.4 -23.1,0 -45.8,-8.3 -63.1,-26.5 v 0 c -17.4,-17.1 -26.2,-39.7 -26.2,-62.9 0,-14.9 4.4,-30 11.9,-43.6 l -50,-50.5 c -36.9,30.6 -83,50.5 -133,55.5 v 70.6 c 14.9,4.1 28.7,12.1 39.2,23.2 16.5,15.7 26.2,38.6 26.2,62.6 0,24.3 -9.7,46.9 -26.2,63.2 v 0 c -34.5,34.2 -91.1,34.2 -125.2,0 h -0.5 C 420.9,947.9 411,925.9 411,901 c 0,-24 9.9,-46.9 25.9,-62.6 10.7,-11.1 24.3,-19 39.7,-23.2 v -70.6 c -50.2,-5 -96,-24.8 -133,-55.5 l -50.2,50.5 c 8.3,13.5 12.1,28.7 12.1,43.6 0,49.4 -40.3,89.4 -89.4,89.4 -48.5,0 -88.8,-40 -88.8,-89.4 0,-48.6 40.3,-88.6 88.8,-88.6 15.2,0 30.9,4.1 44.2,11.9 L 310.5,656 C 280.2,619.9 260.3,573.5 255.3,523.3 H 184.7 C 174.2,561.6 138.6,588.7 98.6,588.7 74.3,588.7 52,579 36.2,562.8 1.3,528 1.3,471.5 36,437 c 15.8,-15.8 38.1,-26 62.4,-26 24.5,0 46.9,10.2 62.9,25.9 11,11.3 19.3,24.5 23.2,39.7 h 70.6 c 5,-49.8 24.8,-95.6 55.2,-132.9 z m 189.8,-11.6 v 0 c -92.4,0 -168.3,76.4 -168.3,168 0,92.1 75.6,167.5 168.3,167.5 92.1,0 167.2,-74.8 167.2,-167.5 -0.1,-92.6 -75.1,-168 -167.2,-168 z m 0,-275.5 v 0 c -23.7,0 -42.5,19.3 -42.5,42.2 0,11.9 4.7,22.4 12.1,30.1 16.5,16.3 43.6,16.3 60.1,0 7.7,-7.7 12.1,-18.2 12.1,-30.1 C 542,75.9 523.2,56.6 500.1,56.6 Z m 283.5,117.5 v 0 c -23.7,0 -42.7,18.8 -42.7,42.5 0,10.5 4.1,21.2 11.9,29.3 v 0.3 h 0.6 l 0.8,0.9 0.3,0.5 c 8.3,7.7 18.5,11.3 29.2,11.3 23.2,0 41.7,-19.3 41.7,-42.2 -0.1,-23.6 -18.6,-42.6 -41.8,-42.6 z m 147.1,355.3 v 0 c 7.5,-6.9 12.4,-18.2 12.4,-29.3 0,-11.8 -4.9,-22.4 -12.4,-30.1 -7.5,-7.7 -18.2,-12.1 -29.5,-12.1 -12.1,0 -22.6,4.4 -30.4,12.1 -16.6,16.8 -16.6,43.3 0,59.3 7.7,8 18.2,13 30.4,13 11.2,0.1 22,-4.9 29.5,-12.9 z M 825.3,783.2 v 0 c 0,-22.9 -18.8,-41.9 -41.7,-41.9 -11,0 -21.5,4.4 -30.1,11.9 l -0.3,0.5 -0.9,0.8 v 0.3 0 c -7.4,7.7 -11.6,18.5 -11.6,28.4 0,11.3 4.1,22.1 12.4,30.3 v 0.3 c 8.3,8 19,12.1 30.3,12.1 23.1,0 41.9,-19 41.9,-42.7 z M 469.7,931 v 0 c 16,16.3 43.6,16.3 60.1,0 v 0 c 7.7,-7.2 12.1,-18.5 12.1,-30 0,-11.9 -5,-22.1 -12.1,-29.5 -16.5,-16.9 -43.6,-16.9 -60.1,0 -7.7,7.4 -12.1,17.6 -12.1,29.5 0,11.6 4.4,22.3 12.1,30 z M 215.9,825.9 v 0 c 23.7,0 42.5,-19 42.5,-42.8 0,-10.2 -3.9,-20.7 -12.1,-28.9 v 0 -0.6 h -0.6 l -0.6,-0.8 h -0.5 c -7.7,-7.7 -18.2,-11.6 -28.7,-11.6 -23.1,0 -41.9,19 -41.9,41.9 0,23.5 18.8,42.8 41.9,42.8 z M 68.6,470.1 v 0 c -16.3,16.3 -16.3,43.9 0,59.3 7.7,8 18.2,13 29.8,13 11.9,0 22.6,-5 30.4,-13 16,-16 16,-42.5 0,-59.3 -7.7,-7.7 -18.5,-12.4 -30.4,-12.4 -11.6,0 -22.1,4.7 -29.8,12.4 z M 245.7,246.3 v 0 l 0.6,-0.3 0.5,-0.5 v 0 c 7.7,-8.3 11.6,-19 11.6,-29 0,-23.7 -18.8,-43 -42.5,-43 -23.1,0 -41.9,19.6 -41.9,43 0,23.2 18.8,41.9 41.9,41.9 11.1,0.1 21.3,-3.8 29.8,-12.1 z"
     id="path4" /></g>
</svg>
