<?xml version="1.0" encoding="UTF-8" standalone="no"?>
<svg
   width="400"
   height="400"
   viewBox="0 0 400 400"
   version="1.1"
   id="svg1417"
   sodipodi:docname="ZWCAD.svg"
   inkscape:version="1.1.1 (3bf5ae0d25, 2021-09-20, custom)"
   xmlns:inkscape="http://www.inkscape.org/namespaces/inkscape"
   xmlns:sodipodi="http://sodipodi.sourceforge.net/DTD/sodipodi-0.dtd"
   xmlns:xlink="http://www.w3.org/1999/xlink"
   xmlns="http://www.w3.org/2000/svg"
   xmlns:svg="http://www.w3.org/2000/svg"
   xmlns:rdf="http://www.w3.org/1999/02/22-rdf-syntax-ns#"
   xmlns:cc="http://creativecommons.org/ns#"
   xmlns:dc="http://purl.org/dc/elements/1.1/">
  <sodipodi:namedview
     id="namedview1419"
     pagecolor="#505050"
     bordercolor="#eeeeee"
     borderopacity="1"
     inkscape:pageshadow="0"
     inkscape:pageopacity="0"
     inkscape:pagecheckerboard="0"
     showgrid="false"
     inkscape:zoom="1.5302233"
     inkscape:cx="354.52343"
     inkscape:cy="180.36584"
     inkscape:window-width="2554"
     inkscape:window-height="1386"
     inkscape:window-x="2560"
     inkscape:window-y="48"
     inkscape:window-maximized="1"
     inkscape:current-layer="编组-4"
     width="400px" />
  <title
     id="title1341">ZWCAD_机械</title>
  <defs
     id="defs1371">
    <radialGradient
       cx="0.38685131"
       cy="-0.26516965"
       fx="0.38685131"
       fy="-0.26516965"
       r="1.8485664"
       id="radialGradient-1">
      <stop
         stop-color="#B71DD7"
         offset="0%"
         id="stop1343" />
      <stop
         stop-color="#C426E4"
         offset="61.9733616%"
         id="stop1345" />
      <stop
         stop-color="#E027FF"
         offset="100%"
         id="stop1347" />
    </radialGradient>
    <polygon
       id="path-2"
       points="256,256 -0.0023401506,256 -0.0023401506,2.8421059e-14 256,2.8604041e-14 " />
    <radialGradient
       cx="0.61565882"
       cy="0.65032411"
       fx="0.61565882"
       fy="0.65032411"
       r="0.91413468"
       gradientTransform="matrix(-0.56461645,-0.82285292,0.81758501,-0.56825441,0.43157504,1.5264703)"
       id="radialGradient-4">
      <stop
         stop-color="#DF26FE"
         offset="0%"
         id="stop1351" />
      <stop
         stop-color="#A218C2"
         offset="100%"
         id="stop1353" />
    </radialGradient>
    <radialGradient
       cx="0.53763366"
       cy="0.705347"
       fx="0.53763366"
       fy="0.705347"
       r="0.74899328"
       gradientTransform="matrix(-0.71780829,-0.69144061,0.68701401,-0.72243331,0.43896887,1.5866551)"
       id="radialGradient-5">
      <stop
         stop-color="#DF26FE"
         offset="0%"
         id="stop1356" />
      <stop
         stop-color="#A218C2"
         offset="100%"
         id="stop1358" />
    </radialGradient>
    <radialGradient
       cx="0.52821898"
       cy="0.57838196"
       fx="0.52821898"
       fy="0.57838196"
       r="0.77510208"
       gradientTransform="matrix(-0.72159436,-0.68743725,0.68303628,-0.72624378,0.51432296,1.3615457)"
       id="radialGradient-6">
      <stop
         stop-color="#DF26FE"
         offset="0%"
         id="stop1361" />
      <stop
         stop-color="#A218C2"
         offset="100%"
         id="stop1363" />
    </radialGradient>
    <linearGradient
       x1="0.49910232"
       y1="1.0001601"
       x2="0.49910232"
       y2="0.0013794876"
       id="linearGradient-7">
      <stop
         stop-color="#9B17BB"
         offset="0%"
         id="stop1366" />
      <stop
         stop-color="#E327FF"
         offset="100%"
         id="stop1368" />
    </linearGradient>
    <radialGradient
       cx="0.38685131"
       cy="-0.26516965"
       fx="0.38685131"
       fy="-0.26516965"
       r="1.8485664"
       id="radialGradient6433">
      <stop
         stop-color="#48e228"
         offset="0%"
         id="stop2120" />
      <stop
         stop-color="#3bd91b"
         offset="61.9733616%"
         id="stop2122" />
      <stop
         stop-color="#1fd800"
         offset="100%"
         id="stop2124" />
    </radialGradient>
    <radialGradient
       cx="0.61565882"
       cy="0.65032411"
       fx="0.61565882"
       fy="0.65032411"
       r="0.91413468"
       gradientTransform="matrix(-0.56461645,-0.82285292,0.81758501,-0.56825441,0.43157504,1.5264703)"
       id="radialGradient5286">
      <stop
         stop-color="#20d901"
         offset="0%"
         id="stop2127" />
      <stop
         stop-color="#5de73d"
         offset="100%"
         id="stop2129" />
    </radialGradient>
    <radialGradient
       cx="0.53763366"
       cy="0.705347"
       fx="0.53763366"
       fy="0.705347"
       r="0.74899328"
       gradientTransform="matrix(-0.71780829,-0.69144061,0.68701401,-0.72243331,0.43896887,1.5866551)"
       id="radialGradient7896">
      <stop
         stop-color="#20d901"
         offset="0%"
         id="stop2132" />
      <stop
         stop-color="#5de73d"
         offset="100%"
         id="stop2134" />
    </radialGradient>
    <radialGradient
       cx="0.52821898"
       cy="0.57838196"
       fx="0.52821898"
       fy="0.57838196"
       r="0.77510208"
       gradientTransform="matrix(-0.72159436,-0.68743725,0.68303628,-0.72624378,0.51432296,1.3615457)"
       id="radialGradient8524">
      <stop
         stop-color="#20d901"
         offset="0%"
         id="stop2137" />
      <stop
         stop-color="#5de73d"
         offset="100%"
         id="stop2139" />
    </radialGradient>
    <linearGradient
       x1="0.49910232"
       y1="1.0001601"
       x2="0.49910232"
       y2="0.0013794876"
       id="linearGradient8021">
      <stop
         stop-color="#64e844"
         offset="0%"
         id="stop2142" />
      <stop
         stop-color="#1cd800"
         offset="100%"
         id="stop2144" />
    </linearGradient>
    <radialGradient
       cx="0.38685131"
       cy="-0.26516965"
       fx="0.38685131"
       fy="-0.26516965"
       r="1.8485664"
       id="radialGradient5332">
      <stop
         stop-color="#9f9f9f"
         offset="0%"
         id="stop2329" />
      <stop
         stop-color="#949494"
         offset="61.9733616%"
         id="stop2331" />
      <stop
         stop-color="#888888"
         offset="100%"
         id="stop2333" />
    </radialGradient>
    <radialGradient
       cx="0.61565882"
       cy="0.65032411"
       fx="0.61565882"
       fy="0.65032411"
       r="0.91413468"
       gradientTransform="matrix(-0.56461645,-0.82285292,0.81758501,-0.56825441,0.43157504,1.5264703)"
       id="radialGradient5821">
      <stop
         stop-color="#898989"
         offset="0%"
         id="stop2336" />
      <stop
         stop-color="#aaaaaa"
         offset="100%"
         id="stop2338" />
    </radialGradient>
    <radialGradient
       cx="0.53763366"
       cy="0.705347"
       fx="0.53763366"
       fy="0.705347"
       r="0.74899328"
       gradientTransform="matrix(-0.71780829,-0.69144061,0.68701401,-0.72243331,0.43896887,1.5866551)"
       id="radialGradient667">
      <stop
         stop-color="#898989"
         offset="0%"
         id="stop2341" />
      <stop
         stop-color="#aaaaaa"
         offset="100%"
         id="stop2343" />
    </radialGradient>
    <radialGradient
       cx="134.91951"
       cy="229.67596"
       fx="134.91951"
       fy="229.67596"
       r="197.97923"
       gradientTransform="scale(1.0032164,0.9967939)"
       id="radialGradient5618"
       gradientUnits="userSpaceOnUse">
      <stop
         stop-color="#898989"
         offset="0%"
         id="stop2346" />
      <stop
         stop-color="#aaaaaa"
         offset="100%"
         id="stop2348" />
    </radialGradient>
    <linearGradient
       x1="0.49910232"
       y1="1.0001601"
       x2="0.49910232"
       y2="0.0013794876"
       id="linearGradient8387">
      <stop
         stop-color="#aeaeae"
         offset="0%"
         id="stop2351" />
      <stop
         stop-color="#878787"
         offset="100%"
         id="stop2353" />
    </linearGradient>
  </defs>
  <g
     id="ZWCAD_机械."
     stroke="none"
     stroke-width="1"
     fill="none"
     fill-rule="evenodd">
    <g
       id="编组-2">
      <mask
         id="mask-3"
         fill="#ffffff">
        <use
           xlink:href="#path-2"
           id="use1373"
           x="0"
           y="0"
           width="100%"
           height="100%" />
      </mask>
      <g
         transform="translate(0,-80)"
         id="g1392" />
    </g>
    <g
       id="编组-4">
      <g
         id="g3412"
         transform="matrix(1.1476692,0,0,1.1476692,-538.65438,-1.2802036)"
         style="stroke-width:0.871331">
        <path
           d="m 697.28251,293.77937 -9.43037,7.9247 -3.16989,2.69438 c -2.43712,2.16498 -5.61843,3.30116 -8.87565,3.16989 v 0 c -3.17656,0.30829 -6.34465,-0.66513 -8.80007,-2.70387 -2.45542,-2.03873 -3.99469,-4.97388 -4.27567,-8.15296 -0.0382,-0.44825 -0.0382,-0.89895 0,-1.3472 V 180.61479 c 0.0427,-1.51342 -0.51801,-2.98175 -1.55844,-4.08164 -1.04045,-1.0999 -2.47538,-1.74117 -3.98884,-1.78263 -1.49659,-0.073 -2.9576,0.47124 -4.04159,1.50569 v 0 l 9.50963,-7.92469 3.16987,-2.6944 c 2.45773,-2.12992 5.62471,-3.26098 8.87565,-3.16987 v 0 c 6.6462,-0.54899 12.48816,4.37242 13.07574,11.01532 0.0368,0.42185 0.0368,0.8461 0,1.26795 v 114.82877 c 0.0618,1.53473 0.73135,2.9819 1.86114,4.02248 1.12977,1.04059 2.627,1.58916 4.16163,1.5248 1.28185,-0.0386 2.51206,-0.51388 3.48686,-1.3472 z"
           id="路径"
           fill="#000000"
           style="stroke-width:0.552601" />
        <path
           d="m 653.06274,187.03379 v 22.26837 l -25.83449,21.63441 c -12.44177,10.46059 -30.51006,-7.4492 -17.98905,-17.90979 l 35.89884,-29.79684 c 2.24259,-1.57489 5.3306,-1.08362 6.97374,1.10945 0.54682,0.79968 0.87468,1.72864 0.95096,2.6944 z"
           id="path1401"
           fill="#000000"
           style="stroke-width:0.552601" />
        <path
           d="m 789.84291,216.11741 -84.23947,70.68823 c -1.11347,0.75811 -2.4828,1.04213 -3.80593,0.78939 -1.32314,-0.25272 -2.49139,-1.02144 -3.24704,-2.13658 -0.49962,-0.75835 -0.79947,-1.63065 -0.87173,-2.5359 v -22.26839 c 24.88354,-20.76268 49.71423,-41.57821 74.4921,-62.44656 12.12478,-10.46059 30.11382,7.36997 17.67207,17.90981 z"
           id="path1403"
           fill="#000000"
           style="stroke-width:0.552601" />
        <path
           d="m 625.9603,113.88889 c -7.3271,8.62539 -18.08325,13.58307 -29.40061,13.55123 -2.6091,0.0756 -4.90518,1.74264 -5.78502,4.20008 l -32.33274,88.91503 c -0.91449,2.50146 -0.18926,5.30778 1.82268,7.05297 v 0 c 3.09172,2.61502 5.76432,5.68851 7.92469,9.1134 10.16669,16.96712 5.98621,38.86179 -9.71662,50.88948 -15.70283,12.0277 -37.93061,10.36062 -51.66371,-3.87478 -13.7331,-14.23538 -14.60098,-36.50869 -2.0172,-51.76951 6.39191,-8.09725 15.93361,-13.0843 26.23073,-13.70971 2.40087,-0.31855 4.45233,-1.88731 5.38879,-4.12085 l 33.4422,-91.92641 c 0.92058,-2.54458 0.33918,-5.39037 -1.5057,-7.36996 -1.67443,-1.67645 -3.18683,-3.50726 -4.51707,-5.46804 -10.8394,-16.801576 -7.14838,-39.087616 8.52902,-51.497478 15.67741,-12.409862 38.21559,-10.886235 52.08013,3.520723 13.86453,14.406959 14.52251,36.986999 1.52043,52.176845 z"
           id="path1405"
           fill="#000000"
           style="stroke-width:0.552601" />
      </g>
    </g>
  </g>
  <metadata
     id="metadata3314">
    <rdf:RDF>
      <cc:Work
         rdf:about="">
        <dc:title>ZWCAD_机械</dc:title>
      </cc:Work>
    </rdf:RDF>
  </metadata>
</svg>
